<svg id="Layer_2" data-name="Layer 2" xmlns="http://www.w3.org/2000/svg" viewBox="0 0 1181.98 150.32"><defs><style>.cls-1{fill:#306149;}</style></defs><title>mountain_mag_logo</title><path class="cls-1" d="M52.4,120.85H27.07l-.18-.78a24,24,0,0,1,4.8-.57c4.84.36,6.45-2,6.42-6.54-.09-14,.06-28,.06-42q0-16.24-.11-32.5C38,30.52,37.61,30.11,30,29c-1.27-.2-2.52-.6-3.77-.9V26.56c4.5,0,9,0,13.51,0,10.59-.09,10.61-.11,14.19,9.66q9.78,26.73,19.51,53.48c.62,1.68,1.39,3.3,2.48,5.89.79-2.28,1.29-3.62,1.73-5C83.9,71,90.28,51.32,96.45,31.62c1.16-3.7,2.75-5.4,7-5.13,6.7.43,13.44.11,20.17.11l.14,1.75c-1.57.25-3.14.61-4.72.73-6,.45-7.39,1.47-7.48,7.58-.23,17.5-.21,35-.27,52.49,0,7.5-.07,15,0,22.5.09,6.83,1.07,7.73,7.84,8a9.05,9.05,0,0,1,4.85,1.2H86.48l-.15-.8,6.77-.67c3.32-.32,5.56-1.41,5.54-5.47-.11-24.33-.06-48.67-.07-73a12.69,12.69,0,0,0-.89-2.19c-4.61,14.3-9,27.57-13.17,40.9s-8.1,26.59-13.32,39.86c-9.4-25.8-18.79-51.59-28.7-78.81-.68,2.11-1,2.65-1,3.2.07,22.33.09,44.66.33,67,.08,7.67.34,7.65,8.07,8.51a19.14,19.14,0,0,1,2.63.67Z" transform="translate(-26.17 -24.34)"/><path class="cls-1" d="M804.13,71.15c4.92,1,8.7,1.53,12.34,2.55,11.74,3.29,17.73,11.14,17.7,22.88,0,11.09-6.36,19.39-17.73,22.42a62.12,62.12,0,0,1-14.28,2.09,320.62,320.62,0,0,1-34.44-.84,5.2,5.2,0,0,1,1.42-.62c8.41-.88,8.43-.87,8.44-9.14q0-36.24,0-72.49c0-8.3,0-8.3-8.32-9.47a29.42,29.42,0,0,1-3.1-.86c1.38-.59,1.91-1,2.44-1,13.81.29,27.65.24,41.43,1.06,10.79.64,18,6.34,20.17,14.38,2.9,10.8-1.9,20.35-12.89,25C813.52,68.67,809.43,69.54,804.13,71.15Zm-13.3.84c0,15-.05,29.09.11,43.18a4.42,4.42,0,0,0,2.34,3.25c8.31,3.25,20.9-1.39,24.08-10a44.81,44.81,0,0,0,2.42-18.85c-.82-9.71-6.68-15-16.36-16.69C799.55,72.23,795.55,72.3,790.83,72Zm.22-42.56V69.48c8.45.33,16.72,1,22.09-7.22,4.53-6.95,4.64-21.28-.14-27.72C807.28,26.83,799,29.58,791.05,29.43Z" transform="translate(-26.17 -24.34)"/><path class="cls-1" d="M915.93,121.37c1.1-1.52,1.22-1.64,1.29-1.79.76-1.7,1.51-3.41,2.26-5.11,1,.86,2.93,2.32,2.83,2.49-1.2,1.89-2.4,4.62-4.19,5.15-10.93,3.25-22.53-4.32-24.61-15.87-1-5.4-1.57-10.88-2.06-16.35-1.15-12.72-8.11-18.47-21.76-17.22-.11,1.66-.32,3.42-.32,5.17q0,16.5,0,33c0,7.47.83,8.33,8.14,8.71a5.54,5.54,0,0,1,3.64,1.28h-35l-.17-.58a6.28,6.28,0,0,1,1.56-.58c8.93-.84,8.94-.83,8.94-9.65v-71c0-9.53,0-9.53-9.26-10.7a17.51,17.51,0,0,1-2.46-.89,22.22,22.22,0,0,1,3.76-.82c11.5-.06,23-.26,34.47,0a42.64,42.64,0,0,1,12.68,2.25c7.67,2.66,12.55,8.14,13.29,16.49s-2.51,15-9.65,18.9c-5.73,3.11-12.25,4.76-18.63,7.14,1.22.33,2.76.81,4.34,1.16,10.35,2.36,17.37,8.24,19.54,18.93,1.25,6.18,2,12.47,3.11,18.68.45,2.41,1,5.1,2.35,7S913.88,120,915.93,121.37ZM869.51,69c15.25,2.79,25.08-5.12,25.24-19.8a48.67,48.67,0,0,0-.21-5c-1.09-11.06-9.27-17.32-20.15-15-1.87.41-4.6,3-4.66,4.64C869.32,45.65,869.51,57.4,869.51,69Z" transform="translate(-26.17 -24.34)"/><path class="cls-1" d="M1152.35,65.28c8.82,10,17.38,19.48,25.77,29.14q7.88,9,15.32,18.45c3.19,4,6.94,6.6,12.23,6.6a3.06,3.06,0,0,1,2.44,1.45H1170.6l-.21-.54,11-2.86L1142.67,72c-.26,2.73-.49,4.07-.49,5.4q0,16.24,0,32.49c0,8.26.21,8.46,8.53,9.52a2.48,2.48,0,0,1,2,1.42h-34.31c.81-.65,1.11-1.11,1.46-1.14,8.69-.74,9.21-.32,9.21-10.82q0-35.73,0-71.47c0-7.53,0-7.52-7.46-8.63a4,4,0,0,1-2.72-1.58h33.78l.12.91a26.62,26.62,0,0,1-3.58.86c-7,.76-7,.73-7,7.89,0,10.61,0,21.22,0,29.55l39.74-36.61-10.85-1.75c0-.27,0-.53,0-.79h27.51c.05.4.09.81.13,1.22a30.1,30.1,0,0,1-5.47.59c-4.16-.28-7.26,1.26-10.12,4.28C1173.06,44,1162.82,54.45,1152.35,65.28Z" transform="translate(-26.17 -24.34)"/><path class="cls-1" d="M221.36,75.32c-1.81,7-2.78,14.94-5.9,21.9-6.33,14.17-16.92,23.81-33.2,25.32-17,1.57-30.51-5.06-39.59-19.21-12-18.7-12.33-38.54-1.47-57.71,9.15-16.15,24.26-22.34,42.42-19.95,17.15,2.26,27.49,13.39,33.28,28.82C219.25,60.76,219.79,67.7,221.36,75.32Zm-15.82,0c0-12.81-1.69-25.24-8.35-36.51C192.59,31,186,26.82,176.69,27c-11.33.2-18.65,5.41-23.34,17.65C147.84,59,147.89,74,149.76,89c1,8.19,3.51,16,8.74,22.53,11.56,14.53,32.54,12.4,40.77-4.14C204.29,97.27,205.55,86.41,205.54,75.32Z" transform="translate(-26.17 -24.34)"/><path class="cls-1" d="M970.5,25.24c10.26-.23,19.81,4.06,27.72,12.3,18.37,19.14,18.67,53.09.6,72.49a40.32,40.32,0,0,1-53.93,4.64c-22.49-17-26.19-54.37-7.48-75.49C945.72,29.79,956.12,25.24,970.5,25.24Zm28.26,50.32-1.34-.33c-.38-12.4-1.74-24.56-8.06-35.63C984.59,31.23,977.73,26.73,967.8,27s-17.34,4.81-20.7,13.75a107,107,0,0,0-6.37,26.43c-1.44,14-.27,28,7,40.69,5.15,9,13,13.56,23.51,13.17s17.4-6.24,20.47-15.59C994.87,95.74,996.47,85.54,998.76,75.56Z" transform="translate(-26.17 -24.34)"/><path class="cls-1" d="M1023.24,73.16c1.71-7.22,2.54-14.8,5.32-21.58,6.13-14.93,17.35-24.12,33.78-26,17.69-2.06,31.65,4.59,40.48,19.81,11.37,19.58,11.58,39.91-1,59-15.52,23.64-47.53,24.87-65.75,3.2C1028.14,98.09,1024.36,87.12,1023.24,73.16ZM1096,75c0-16.43-3.39-29.37-9.93-38.55-9.15-12.83-28.53-13.12-37.6-.26a46.21,46.21,0,0,0-6.18,13,78.86,78.86,0,0,0-2.34,36.57,82.8,82.8,0,0,0,7.61,23.43c4.55,8.84,13.09,12.41,23.1,11.79,9.77-.61,15.74-6.33,19.63-14.76C1094.84,96.3,1095.83,85.74,1096,75Z" transform="translate(-26.17 -24.34)"/><path class="cls-1" d="M640.35,26.85c5.69,0,11.45.57,17-.16,6.19-.79,9.49,1.61,12.75,6.65,12.86,19.84,26.19,39.36,39.36,59,.78,1.16,1.7,2.23,3.29,4.3.16-2.81.33-4.39.33-6q0-27,0-54c0-8-.06-8-8-8.27a6.19,6.19,0,0,1-3.9-1.22h26.1l.07.87c-1.36.12-2.73.32-4.09.35-7.09.15-7.1.13-7.1,7.4q0,39.48,0,79v6.88l-1.62.76L659.2,39.83c-.17,2.39-.36,3.86-.36,5.33q0,33.48,0,67c0,6.26.52,6.81,6.66,7.25,1.88.13,3.77.19,5.62,1.41h-28l-.12-.9c2.47-.21,4.94-.45,7.41-.65,3.28-.26,5.2-1.69,5.18-5.31-.07-24.48.08-49-.2-73.45-.09-8.34-3.2-11-11.62-11.87-1.18-.13-2.34-.45-3.51-.68C640.26,27.57,640.3,27.21,640.35,26.85Z" transform="translate(-26.17 -24.34)"/><path class="cls-1" d="M400.64,95.21V56.79c0-7.33-.29-14.68.1-22,.27-5-1.85-6.59-6.39-6.36a9.13,9.13,0,0,1-5.41-1.22H415l.08.78c-1.2.14-2.4.39-3.6.42-7.5.21-7.51.2-7.51,7.93v85.31l-1.75.74L346.68,39.49c-.16,3.06-.32,4.72-.32,6.38q0,32.75,0,65.48c0,7.13.5,7.65,7.52,8.06a8.5,8.5,0,0,1,4.77,1.31H330.89l-.09-.94c1.7-.12,3.4-.25,5.1-.35,6.57-.43,7.46-1.3,7.48-7.8.05-10.67,0-21.33,0-32,0-11.5,0-23,0-34.49a39.45,39.45,0,0,0-.59-6.95c-1.3-6.84-3.42-8.75-10.16-9.51A8.07,8.07,0,0,1,327.79,27a34.56,34.56,0,0,1,3.91-.41c5.16,0,10.38.61,15.47.06,4.73-.51,7.12,1.39,9.56,5.09,13.18,20,26.62,39.89,40,59.81.9,1.34,1.87,2.63,2.81,3.94Z" transform="translate(-26.17 -24.34)"/><path class="cls-1" d="M292.86,27h24.45l.14.89a31.18,31.18,0,0,1-3.44.46c-6.93.21-7.15.43-7.22,7.56-.18,19.32.19,38.67-.72,58-.95,20.23-11.47,29.32-31.71,28.85a56.18,56.18,0,0,1-11.85-1.47c-11.08-2.66-17.9-9.83-18.92-21.14s-.94-22.6-1.13-33.91c-.16-9.83,0-19.66,0-29.49,0-7.24-.25-7.49-7.45-8.13a3.44,3.44,0,0,1-2.59-1.45h33.09l.21,1.08c-1.44.27-2.9.86-4.31.74-4.45-.37-5.9,1.79-5.86,5.9.22,20.49-.06,41,.62,61.46.54,16,8.2,23.35,22.58,23.36,13.93,0,22.85-8.48,23.7-23.57.7-12.46.53-25,.68-37.46.08-7.16,0-14.33,0-21.49,0-7.36-.17-7.51-7.28-8.37a27.88,27.88,0,0,1-3.16-.76Z" transform="translate(-26.17 -24.34)"/><path class="cls-1" d="M541.5,24.34c7.09,19.24,13.78,37.33,20.44,55.43,3.79,10.31,7.81,20.54,11.2,31,2,6,5,9.59,11.76,8.87a2.52,2.52,0,0,1,2.22,1.24h-42l-.12-1.28c3-.3,6.06-.62,9.09-.88,6.12-.53,6.57-1.21,4.66-7.08-1.84-5.7-3.75-11.38-5.44-17.13-.82-2.81-2.24-4-5.31-4-7.33.19-14.67-.13-22,.2a6.36,6.36,0,0,0-4.69,3.09c-2.55,6.31-4.56,12.85-6.74,19.31-1.25,3.71-.17,5.74,4,5.87a15.14,15.14,0,0,1,7,1.89H496.33c1.53-.71,2.18-1.29,2.8-1.26,7,.44,10.21-3.32,12.39-9.69C521.13,81.77,531.15,53.75,541.5,24.34Zm-3.74,25.15-1.39-.05C532,62.06,527.54,74.68,523,87.65h28.32C546.67,74.55,542.21,62,537.76,49.49Z" transform="translate(-26.17 -24.34)"/><path class="cls-1" d="M471,29.28v77.43c0,11.44,0,11.44,10.71,14H445.8c1.72-.66,2.26-1.06,2.79-1,9.54.18,9.39-2.13,9.4-10.56q.06-36.75,0-73.48c0-2-.2-3.91-.33-6.3-7.37.22-15.35-1.68-20.37,3.75-4.3,4.65-6.13,11.59-9.81,17.83.45-7.94.9-15.88,1.37-24.06h71.76l2,25.07-.89,0c-2.86-6.36-4.53-13.74-8.89-18.83C487.66,27.12,479.26,29.13,471,29.28Z" transform="translate(-26.17 -24.34)"/><path class="cls-1" d="M596.39,26.79h32.69l.19.94a43,43,0,0,1-4.76.61c-3.76.08-5.36,2-5.35,5.64q0,39.69,0,79.37c0,3.43,1.4,5.28,4.86,5.63a12,12,0,0,1,5.55,1.79H595.32c.79-.64,1.07-1.06,1.42-1.12,9.3-1.48,9.35-1.47,9.36-11.27q0-34.18,0-68.39C606.11,29.65,606.09,29.65,596.39,26.79Z" transform="translate(-26.17 -24.34)"/><path class="cls-1" d="M1011.43,149.21q-5.22,12.22-10.42,24.45l-1.41,0-10.39-24.52h-1.29c0,2.29,0,4.57,0,6.85,0,5,.07,10-.09,15,0,.83-1.07,1.62-1.64,2.43-.47-.74-1.36-1.48-1.36-2.22-.1-9.46-.07-18.93-.07-28.2,3.74-1.74,5.28-.24,6.45,2.74,2.72,6.94,5.67,13.78,9.12,22.08,3.4-8.19,6.38-15.1,9.12-22.1,1.19-3,2.79-4.41,6.52-2.74,0,9.25,0,18.71-.06,28.17,0,.77-.85,1.52-1.31,2.28-.63-.76-1.79-1.5-1.81-2.27-.17-5.33-.1-10.66-.11-16v-5.8Z" transform="translate(-26.17 -24.34)"/><path class="cls-1" d="M1075.68,158.87l-7.26-.7c2.85-3.64,6.42-2,10.51-2.41,0,4.8.08,9.4-.07,14a3.62,3.62,0,0,1-1.6,2.26c-6.25,4.26-17.52,2.76-22.6-2.92a17.36,17.36,0,0,1,0-22.48c5.26-5.93,15.29-7.13,21.92-2.64.55.37,1.16.64,1.74,1l-.77,1.82a16.45,16.45,0,0,1-3.89-.88c-5.38-2.69-11.29-2.15-15.35,1.58-4.29,3.94-5.57,11-3,16.6,2.42,5.24,7.37,8,13.46,7.43s7-1.53,7-7.69Z" transform="translate(-26.17 -24.34)"/><path class="cls-1" d="M1155.88,141.11c2.33,1.61,4.3,2.39,5.37,3.82,4.67,6.28,9.07,12.75,13.59,19.14a8.28,8.28,0,0,0,4,3.17v-25l2.52,0c.1,10.19,0,20.39,0,32.35-2.65-1.78-4.72-2.54-5.81-4-5.46-7.47-10.67-15.14-16-22.74l-1.3.26V174C1155.08,171.57,1154.25,156.51,1155.88,141.11Z" transform="translate(-26.17 -24.34)"/><path class="cls-1" d="M1111,173.9c-1.14-1.3-2.88-2.43-3.29-3.93-1.1-4-3.45-5.29-7.35-4.71a16.39,16.39,0,0,1-4.48,0c-4.49-.59-7.69.49-8.86,5.46-.3,1.26-2,2.19-3,3.27-.47-.35-.94-.7-1.42-1,4.21-9.66,8.31-19.35,12.66-28.94,1.32-2.92,3.5-2.54,4.7.12,4.27,9.51,8.33,19.12,12.47,28.7Zm-20.34-11.62h13.64l-6.76-16.6C1095.08,151.7,1093,156.65,1090.69,162.28Z" transform="translate(-26.17 -24.34)"/><path class="cls-1" d="M1019.64,172.74c4.12-9.45,8.19-18.93,12.39-28.35,1.37-3,3.5-3.3,4.92-.19,4.3,9.49,8.33,19.09,12.47,28.65l-1.42,1.09c-1.08-1.18-2.72-2.2-3.13-3.58-1.25-4.26-3.75-5.88-8.09-5.11a14,14,0,0,1-4.48,0c-4.22-.64-7,.63-8.13,5.07-.37,1.4-2,2.47-3.09,3.69Zm8.11-10.68h13.49c-2.23-5.42-4.23-10.29-6.71-16.34Z" transform="translate(-26.17 -24.34)"/><path class="cls-1" d="M1207.89,173.25h-19.28V142.83h18.69c0,.57,0,1.13,0,1.7h-15.86v11.61h14.88c0,.7-.07,1.39-.11,2.08H1191.6v12.06l16.55.88Z" transform="translate(-26.17 -24.34)"/><path class="cls-1" d="M1120.74,170.15c6.39,1.48,12.49-.85,18,1.46,0,.46-.07.92-.11,1.39h-23.5c6-9.71,12.8-18.08,19.62-28.37h-18.31l.07-1.85h23.17Z" transform="translate(-26.17 -24.34)"/><path class="cls-1" d="M1147.83,142.38v31.36c-.9-.67-2.15-1.16-2.15-1.67-.12-9.92-.09-19.84-.09-29.76Z" transform="translate(-26.17 -24.34)"/></svg>