<svg id="Layer_1" data-name="Layer 1" xmlns="http://www.w3.org/2000/svg" viewBox="0 0 433.96 108.45"><defs><style>.cls-1{fill:#306149;}.cls-2{fill:#fff;}</style></defs><title>oxygen_logo</title><path class="cls-1" d="M572.18,589.07c7.21,0,13.18-.18,19.12.13,1.47.08,3.22,1.46,4.22,2.73,5.28,6.64,10.37,13.45,16,20.87,5.22-6.71,10.32-13,15.06-19.48,2.26-3.1,4.67-4.72,8.66-4.36,5.25.49,11.72-1.3,15.49,1.19,3.58,2.35,4.4,8.94,6.35,13.71,5.22,12.77,10.39,25.55,15.95,39.25,1.16-2.42,2-4,2.73-5.71,6.18-14.73,12.42-29.45,18.44-44.26,1.24-3.06,2.72-4.47,6.19-4.16,4,.36,8,.09,12.61.09-.59,1.68-1,3-1.52,4.31q-16.34,38.1-32.7,76.19c-.33.76-.68,1.52-1,2.28-6.87,15.17-14.31,19.58-30.84,17.06-10.47-1.6-8.55.39-8.74-9.72-.05-2.48,0-5,0-8.25,3.29.72,6.09,1.51,8.94,1.91,5.16.71,10.38,1.36,14.17-3.61,2.57-3.38,3.55-6.49,1.59-10.93-7.92-18-15.38-36.13-23.36-55.08l-17.36,21.5,31.65,39.66c-7.55,0-14,.2-20.31-.17-1.37-.08-2.82-2.08-3.88-3.47-5.94-7.79-11.77-15.67-17.89-23.86-6.68,8.53-13,16.68-19.43,24.69-1,1.28-2.77,2.68-4.25,2.76-6,.31-11.95.13-19.26.13l32-39.6Z" transform="translate(-502.92 -586.8)"/><path class="cls-1" d="M765.52,594.93c.2-2.15.33-3.63.49-5.42h14.58c.11,1.61.29,3.06.29,4.51q0,33.26,0,66.51c0,2.66-.29,5.32-.54,8-1.13,12.43-8.24,20-19.74,23.73a61.58,61.58,0,0,1-33.05,1.41c-15-3.35-21.38-11.63-21.87-28.34l15.69-.92c0,7.08,2.75,12.24,9.92,13.62,10.28,2,20.7,3.12,29.65-3.94,5.47-4.31,4.87-10.87,4.75-17.54a16,16,0,0,0-2.41,1.07c-14,9.57-31.6,10.2-44.58,1.57C706.34,651,700.4,635,703.54,618.48c5-26.17,32.33-38.71,57-26.15C762,593.07,763.48,593.85,765.52,594.93Zm-23.63,54.51c14.14-.12,23.68-9.93,23.45-24.1-.21-13.22-9.59-22.32-23-22.29-13.91,0-23.33,9.6-23.32,23.69C719.06,640.57,728.1,649.56,741.89,649.44Z" transform="translate(-502.92 -586.8)"/><path class="cls-1" d="M800.27,630.14c.08,9.82,6.6,17.63,16.32,20.43,11.77,3.4,19.87-.63,29.11-14.74l13.91,4.54c-4.76,18.65-24.88,29.7-46.06,25.52s-33.28-24-29.36-47.83c3.43-20.92,20.79-33.42,43-31,19.74,2.19,34.4,21,33.12,43Zm41.83-14.29c-2.56-9.29-9.82-14.65-19.38-14.73-10.41-.09-18.65,5.55-21.31,14.73Z" transform="translate(-502.92 -586.8)"/><path class="cls-1" d="M584.91,627.23c0,23.41-16.82,39.59-41,39.52-24.61-.06-41-15.52-41-38.66,0-24.08,17.25-41,41.57-40.82S585,603.42,584.91,627.23Zm-41.13-24.36c-15.11,0-25,9.76-25,24.49,0,14.21,10.45,23.8,25.84,23.75,14.33-.05,24.46-10,24.46-24.06C569.07,612.39,559.08,602.84,543.78,602.87Z" transform="translate(-502.92 -586.8)"/><path class="cls-1" d="M878.84,664.24H863.43V589.45h15c.25,1.36.54,2.88.9,4.79a41.59,41.59,0,0,1,31.25-6.67c15.33,2.69,24.72,11.51,25.74,26.81,1.1,16.38.25,32.89.25,49.73H921.38V645c0-7.17-.16-14.34,0-21.5.42-18.56-13-22.14-25.47-20.08-10.59,1.76-16.58,8.83-16.88,19.78-.33,11.83-.15,23.67-.19,35.5Z" transform="translate(-502.92 -586.8)"/><path class="cls-2" d="M741.89,649.44c-13.79.12-22.83-8.87-22.85-22.7,0-14.09,9.41-23.66,23.32-23.69,13.39,0,22.77,9.07,23,22.29C765.57,639.51,756,649.32,741.89,649.44Z" transform="translate(-502.92 -586.8)"/><path class="cls-2" d="M842.1,615.85H801.41c2.66-9.18,10.9-14.82,21.31-14.73C832.28,601.2,839.54,606.56,842.1,615.85Z" transform="translate(-502.92 -586.8)"/><path class="cls-2" d="M543.78,602.87c15.3,0,25.29,9.52,25.28,24.18,0,14-10.13,24-24.46,24.06-15.39,0-25.82-9.54-25.84-23.75C518.73,612.63,528.67,602.9,543.78,602.87Z" transform="translate(-502.92 -586.8)"/></svg>