<svg id="Layer_1" data-name="Layer 1" xmlns="http://www.w3.org/2000/svg" viewBox="0 0 958.26 259.21"><defs><style>.cls-1{fill:#306149;}.cls-2{fill:#fff;}</style></defs><title>sports digest logo</title><path class="cls-1" d="M483.14,204.71h.05q0,41.74,0,83.49c0,9.13,0,9.17,8.9,9.19,14,0,28,.31,42-.13a62.8,62.8,0,0,0,18-3.05c12.94-4.36,23.75-15.94,23.56-32.69-.43-37.82-.09-75.65-.2-113.47a35.33,35.33,0,0,0-1.6-11.76c-5.56-15.31-18.1-22.08-33.09-23.17-17.58-1.29-35.29-.62-52.95-.8-4.11,0-4.73,2.4-4.72,5.91C483.19,147.06,483.14,175.89,483.14,204.71ZM151.66,152c-2.08-4.66-6.06-4.84-10.39-4.65-4.82.22-9.66,0-14.49,0-6.72,0-6.79,0-6.79,6.53q0,55,0,109.92,0,49.47,0,98.93c0,6.56.07,6.56,6.78,6.55q12.24,0,24.48,0c6.32,0,6.74-.31,6.76-6.87.06-19.16,0-38.31,0-57.46v-8.64c1.61.22,2.56.38,3.52.48,8,.81,16.08,2.45,24.06,2.19,10.65-.36,20.53-9.86,20.57-19q.24-55,0-109.92a18.74,18.74,0,0,0-8.72-16Q175.52,139.24,151.66,152ZM676.2,297.35c.32,4.59-3,8.19-9.44,8.41-8.15.29-16.32.14-24.48.16-6.6,0-7,.3-7.17,7.07-.11,3.66,0,7.32.06,11s1.88,5.37,5.63,5.23c17.28-.63,34.57-.91,51.83-1.92,7.69-.45,15-3.28,18-11.27,2-5.21,3.77-10.9,3.8-16.39.3-49.3.15-98.6.26-147.9,0-3.39-1.21-4.36-4.34-4.32-8.16.1-16.32-.11-24.48.1a8.13,8.13,0,0,0-5.15,2.23c-2.28,2.37-4.13,2.75-6.87.8-1.56-1.12-3.67-1.51-5.54-2.18a34.84,34.84,0,0,0-28.56,1.84c-8.43,4.38-11.19,12.69-11.19,21.9q0,51.22,0,102.43c0,14.57,8.85,24.2,23.58,24.55C660.16,299.25,668.18,298,676.2,297.35Zm-653.75-75a31.1,31.1,0,0,0-.54,3.67c0,14.16.32,28.33,0,42.48-.34,14.63,10.63,25,23.48,28.21a82.93,82.93,0,0,0,41.95,0c13.25-3.52,22.91-11,25.19-25,1.42-8.8,1-17.88,1.64-26.82,1.13-15.15-4.47-27.51-15-38.1-9.57-9.68-18.93-19.56-28.43-29.31s-10-22-9.07-34.47c.3-3.82,2.56-5.54,6.43-5.27s4.28,2.84,4.27,6c0,9,.31,18,0,27-.18,5,1.77,6.42,6.42,6.29,9-.24,18-.28,27,0C109,177,110,175.74,110,173c0-11.82.41-23.67-.33-35.45-.63-9.88-5.83-17.42-15.14-21.69-17-7.79-34.41-7.09-51.61-1.39-15.07,5-21.73,17.63-21,30.84.46,8.64-.51,17.37.29,26,.47,5,2,10.86,5.11,14.58C37.51,198,48.59,209.4,59.53,220.94c6,6.35,11.79,12.85,12.52,22,.55,6.79.23,13.65.17,20.48,0,5.11-2.22,7.55-6.62,7.5-4.73-.06-6.13-3.3-6.52-7.3a38.07,38.07,0,0,1,0-4c.07-10.32.17-20.65.21-31,0-3.11-.15-6.26-4.51-6.27C44.1,222.32,33.45,222.33,22.45,222.33Zm277.66,1.56h0c0-15.32.3-30.65-.08-46-.41-17.12-9.22-23.89-22.44-28.55-12.44-4.39-25.31-4.13-37.95-1.54-14.23,2.91-25.75,11.07-25.76,28.75,0,14.82-.13,29.64-.15,44.46,0,16.16-.26,32.32.11,48.47.33,14.28,8.28,23.44,21.68,27.43,11.49,3.43,23.16,3.19,34.67,1.81,17.12-2.05,30.09-11.19,29.9-31.89C300,252.54,300.11,238.22,300.11,223.89ZM723,222.41h.06c0,15.16-.24,30.32.07,45.47.26,12.36,5,22.37,17.26,27.2,16.64,6.56,33.7,6.13,50.31.58,12.47-4.16,18.2-14.1,18.1-27.31-.08-8.82-.09-17.65,0-26.47,0-3-1-4.11-4.07-4.07-9.16.13-18.32.19-27.47-.1-4.28-.14-6,1.22-6,5.6.15,8.49.06,17-.12,25.47-.08,3.42-1.19,6.18-5.57,5.93-4.19-.24-4.68-3-4.68-6.23,0-9.65.16-19.32-.09-29-.12-4.27,1.53-5.35,5.54-5.29,12.32.2,24.64-.06,37,.13,4.1.07,5.54-1.27,5.5-5.44-.2-17.65-.06-35.3-.15-52.95-.07-13.18-7.73-23.13-20.42-26.67a85.06,85.06,0,0,0-35.58-2c-20.23,3-30.07,14.15-29.75,33.66C723.2,194.77,723,208.59,723,222.41Zm143.28-13.8.64-1.61c9.64,0,19.29,0,28.93,0,2.91,0,4.74-.58,4.68-4.11-.17-9.83.12-19.67-.2-29.49-.37-11.26-8.84-21.05-19.72-24.17-12.78-3.66-25.61-3.78-38.54-1.42-13.19,2.4-23.84,11.23-24.68,22-.91,11.74-.6,23.6-.31,35.4.15,5.92,3.33,10.74,8.32,14.08,4.13,2.76,8.37,5.36,12.58,8,3.93,2.46,7.88,4.86,11.83,7.29a10.38,10.38,0,0,1-5.55,1.38c-7.66,0-15.33,0-23-.07-4.15-.07-6.1,1.6-6,5.93.14,9.17-.28,18.34.06,27.49.43,11.44,4.81,20.73,16.09,25.37,16.58,6.84,33.62,6.57,50.29,1.21,12.56-4,19.36-13.43,19.1-27.2-.18-9.33-.06-18.66-.25-28a21,21,0,0,0-1.26-6.29c-3.1-9-10.25-14-18.28-18.1C876.06,213.82,871.19,211.19,866.29,208.61ZM308,222.4h0c0,23,0,46,0,69,0,3.6.48,6.25,5,6.2,9.49-.1,19-.05,28.48,0,2.88,0,4.37-1.18,4.23-4.18-.07-1.5,0-3,0-4.5q0-55,0-109.93c0-3.77,1-7.38,5.47-7.45,4.63-.06,5.34,3.63,5.36,7.41.05,8.82.13,17.65.16,26.47,0,3.63,1.29,5.44,5.37,5.31,8.49-.27,17-.08,25.48-.08,6.41,0,6.66-.19,6.69-6.84,0-11.82,0-23.65,0-35.48,0-8.78-4.6-15.39-12.75-19-10-4.41-20-3.63-30.17-.61a12.66,12.66,0,0,1-5.21.54c-2.28-.31-4.47-1.71-6.73-1.77-8.15-.23-16.32-.08-24.48-.09-6.64,0-6.84.06-6.86,6.58Q308,188.17,308,222.4Zm145.5-75.09c0-9-.12-17.12,0-25.25.08-3.92-1.65-5.43-5.35-5.4q-9.75.07-19.49,0c-15-.09-12.67.29-12.8,12.64-.06,5.9,0,11.8,0,18.06-4.48,0-8,.1-11.44,0-3.08-.11-4.69.95-4.59,4.28.15,4.83.13,9.66.07,14.49,0,3.6,1.62,5.21,5.19,5,1.5-.08,3,.14,4.49-.08,4.76-.7,6.34,1.21,6.31,6q-.24,36.72,0,73.45c.08,9.63.43,19.3,1.42,28.88,1.35,13.1,7.75,16,17.79,17.05,11.21,1.19,22.59.76,33.9,1.09,4.1.12,5.71-1.95,5.63-5.83-.11-4.66-.06-9.32-.24-14-.25-6.67-.71-7-7.29-6.91-9.86.19-13.66-3.39-13.69-13.28-.06-23.65,0-47.3,0-71,0-4.93,0-9.87,0-15.45,5.46,0,10.26-.15,15,0,3,.12,4.26-1.1,4.29-4,0-5.33.16-10.66.28-16,.07-3.06-1.5-4-4.38-3.88C463.93,147.43,459.13,147.31,453.54,147.31ZM922,224.25h1c0,18-1,36,.31,53.94,1,13.71,5.48,16.42,16.8,18,11.64,1.6,23.6.9,35.42,1.2,3.14.08,4.54-1.5,4.52-4.59,0-4.33,0-8.67,0-13,0-9.83-.13-8.68-8.05-9-10.11-.4-12.95-3.55-13-13.61-.05-26.84,0-53.67-.11-80.5,0-4.23,1.07-6.24,5.63-5.75,3,.33,6,0,9,.1,3.34.15,5-1.27,5-4.65,0-5-.07-10,0-15,.07-2.81-1.28-3.93-3.9-3.92-3.5,0-7-.2-10.5,0-3.82.26-5.38-1-5.22-5.05.27-6.65-.07-13.33.1-20,.1-3.79-1.28-5.54-5.18-5.49-9.16.11-18.32.09-27.48.07-3.51,0-4.51,1.88-4.46,5.12.11,7-.09,14,0,21,0,2.81-.77,4.31-4,4.3-3.76,0-9.24-.87-10.86,1.14-2,2.49-.82,7.55-1,11.51,0,.16,0,.33,0,.5,0,10.23,0,10.44,10.33,10.3,4.53-.06,5.64,1.62,5.59,5.87C921.84,192.58,922,208.42,922,224.25ZM620.85,222.4h-.08c0-23.32-.08-46.64.08-70,0-4-1.3-5.2-5.19-5.09-8.82.23-17.66.19-26.48,0-4-.08-5.67,1.17-5.66,5.42q.13,69.45,0,138.9c0,4.5,1.93,5.8,6,5.74,8.49-.14,17-.24,25.47,0,4.67.16,6-1.65,5.94-6.13C620.75,268.36,620.85,245.38,620.85,222.4Zm-18.54-82.05c4.83,0,9.66-.06,14.48,0,2.64,0,4-.9,4-3.73-.06-6.83.17-13.66-.16-20.47-.06-1.3-2.15-3.55-3.36-3.58-9.81-.31-19.63-.21-29.45-.2-3.13,0-4.37,1.6-4.3,4.73q.21,9.24,0,18.48c-.09,3.49,1.54,4.79,4.81,4.75C593,140.3,597.65,140.34,602.31,140.35Z" transform="translate(-21.84 -110.06)"/><path class="cls-1" d="M483.14,204.71c0-28.82.05-57.65-.05-86.48,0-3.51.61-6,4.72-5.91,17.66.18,35.37-.49,52.95.8,15,1.09,27.53,7.86,33.09,23.17a35.33,35.33,0,0,1,1.6,11.76c.11,37.82-.23,75.65.2,113.47.19,16.75-10.62,28.33-23.56,32.69a62.8,62.8,0,0,1-18,3.05c-14,.44-28,.16-42,.13-8.87,0-8.89-.06-8.9-9.19q0-41.74,0-83.49Zm41.9-66.5c-.13,1.73-.32,3.18-.33,4.64q-.09,20.21-.11,40.43,0,42.18.11,84.36c0,1.37.56,3.89,1,3.92,1.67.11,4.24,0,4.94-1.06,1.73-2.58,3.64-5.71,3.67-8.65.28-28.45.2-56.9.2-85.35,0-10,.08-20-.12-29.95C534.27,140.52,531.84,138.38,525,138.21Z" transform="translate(-21.84 -110.06)"/><path class="cls-1" d="M676.2,297.35c-8,.62-16,1.9-24,1.72-14.73-.35-23.58-10-23.58-24.55q0-51.21,0-102.43c0-9.21,2.76-17.52,11.19-21.9a34.84,34.84,0,0,1,28.56-1.84c1.87.67,4,1.06,5.54,2.18,2.74,1.95,4.59,1.57,6.87-.8a8.13,8.13,0,0,1,5.15-2.23c8.16-.21,16.32,0,24.48-.1,3.13,0,4.35.93,4.34,4.32-.11,49.3,0,98.6-.26,147.9,0,5.49-1.82,11.18-3.8,16.39-3,8-10.32,10.82-18,11.27-17.26,1-34.55,1.29-51.83,1.92-3.75.14-5.62-1.46-5.63-5.23s-.17-7.32-.06-11c.2-6.77.57-7.06,7.17-7.07,8.16,0,16.33.13,24.48-.16C673.2,305.54,676.52,301.94,676.2,297.35Zm-9.62-73.86h.13q0,21.45,0,42.9c0,4-1.18,8.91,5.06,9.44,4.2.36,5.67-2.17,5.69-9.66q.09-40.41,0-80.83a60.93,60.93,0,0,0-.5-9.94c-.65-3.89-4.79-6-7.79-3.71-1.66,1.29-2.49,4.52-2.52,6.89C666.47,193.55,666.58,208.52,666.58,223.49Z" transform="translate(-21.84 -110.06)"/><path class="cls-1" d="M300.11,223.89c0,14.33-.1,28.65,0,43,.19,20.7-12.78,29.84-29.9,31.89-11.51,1.38-23.18,1.62-34.67-1.81-13.4-4-21.35-13.15-21.68-27.43-.37-16.15-.13-32.31-.11-48.47,0-14.82.13-29.64.15-44.46,0-17.68,11.53-25.84,25.76-28.75,12.64-2.59,25.51-2.85,37.95,1.54,13.22,4.66,22,11.43,22.44,28.55.38,15.32.08,30.65.08,46Zm-38.35-.53h.05c0-9.31,0-18.62,0-27.93,0-6.49.2-13-.39-19.43-.16-1.72-2.67-4.06-4.54-4.6-2.91-.85-5,1-5.34,4.29-.15,1.49-.36,3-.36,4.46q0,40.41,0,80.82c0,3.32-.21,6.79.69,9.89a6.4,6.4,0,0,0,4.85,3.65c1.6,0,3.52-2.19,4.66-3.85.73-1.05.36-2.9.36-4.4Q261.78,244.81,261.76,223.36Z" transform="translate(-21.84 -110.06)"/><path class="cls-1" d="M723,222.41c0-13.82.19-27.64,0-41.46-.32-19.51,9.52-30.71,29.75-33.66a85.06,85.06,0,0,1,35.58,2c12.69,3.54,20.35,13.49,20.42,26.67.09,17.65-.05,35.3.15,52.95,0,4.17-1.4,5.51-5.5,5.44-12.32-.19-24.64.07-37-.13-4-.06-5.66,1-5.54,5.29.25,9.65.08,19.32.09,29,0,3.25.49,6,4.68,6.23,4.38.25,5.49-2.51,5.57-5.93.18-8.49.27-17,.12-25.47-.08-4.38,1.68-5.74,6-5.6,9.15.29,18.31.23,27.47.1,3.07,0,4.11,1.08,4.07,4.07-.11,8.82-.1,17.65,0,26.47.1,13.21-5.63,23.15-18.1,27.31-16.61,5.55-33.67,6-50.31-.58-12.24-4.83-17-14.84-17.26-27.2-.31-15.15-.07-30.31-.07-45.47Zm38.07-12c2.78,0,5,.28,7-.11,1.14-.22,3-1.55,3-2.39,0-11.1-.17-22.2-.44-33.29-.08-3.11-2.54-4.1-4.89-3.33-1.79.59-4.41,2.55-4.45,4C760.92,186.71,761.08,198.15,761.08,210.43Z" transform="translate(-21.84 -110.06)"/><path class="cls-1" d="M866.29,208.61c4.9,2.58,9.77,5.21,14.7,7.73,8,4.1,15.18,9.08,18.28,18.1a21,21,0,0,1,1.26,6.29c.19,9.33.07,18.66.25,28,.26,13.77-6.54,23.16-19.1,27.2-16.67,5.36-33.71,5.63-50.29-1.21-11.28-4.64-15.66-13.93-16.09-25.37-.34-9.15.08-18.32-.06-27.49-.06-4.33,1.89-6,6-5.93,7.66.11,15.33.09,23,.07a10.38,10.38,0,0,0,5.55-1.38c-4-2.43-7.9-4.83-11.83-7.29-4.21-2.63-8.45-5.23-12.58-8-5-3.34-8.17-8.16-8.32-14.08-.29-11.8-.6-23.66.31-35.4.84-10.78,11.49-19.61,24.68-22,12.93-2.36,25.76-2.24,38.54,1.42,10.88,3.12,19.35,12.91,19.72,24.17.32,9.82,0,19.66.2,29.49.06,3.53-1.77,4.13-4.68,4.11-9.64-.07-19.29,0-28.93,0ZM852.87,237.1c0,10.87,0,21.45,0,32,0,2.88,1.08,5.37,4.41,5.66s4.41-2,5.2-4.86c2.27-8,1-15.91-1-23.62C860.52,242.26,858.82,237.69,852.87,237.1Zm9.67-30.59,1.72-1.1c0-8.6.06-17.21-.06-25.8a6.84,6.84,0,0,0-1.32-4.14c-1.47-1.65-3.7-4.15-5.17-3.88-1.74.32-4.3,3.2-4.27,4.95.09,7.18.36,14.5,1.95,21.46C856.13,201.21,860.06,203.7,862.54,206.51Z" transform="translate(-21.84 -110.06)"/><path class="cls-1" d="M308,222.4q0-34.23,0-68.46c0-6.52.22-6.59,6.86-6.58,8.16,0,16.33-.14,24.48.09,2.26.06,4.45,1.46,6.73,1.77a12.66,12.66,0,0,0,5.21-.54c10.14-3,20.16-3.8,30.17.61,8.15,3.59,12.74,10.2,12.75,19,0,11.83,0,23.66,0,35.48,0,6.65-.28,6.84-6.69,6.84-8.49,0-17-.19-25.48.08-4.08.13-5.35-1.68-5.37-5.31,0-8.82-.11-17.65-.16-26.47,0-3.78-.73-7.47-5.36-7.41-4.44.07-5.46,3.68-5.47,7.45q0,55,0,109.93c0,1.5-.06,3,0,4.5.14,3-1.35,4.19-4.23,4.18-9.49,0-19-.08-28.48,0-4.5.05-5-2.6-5-6.2.07-23,0-46,0-69Z" transform="translate(-21.84 -110.06)"/><path class="cls-1" d="M453.54,147.31c5.59,0,10.39.12,15.18,0,2.88-.1,4.45.82,4.38,3.88-.12,5.32-.24,10.65-.28,16,0,2.91-1.25,4.13-4.29,4-4.77-.2-9.57,0-15,0,0,5.58,0,10.52,0,15.45,0,23.66,0,47.31,0,71,0,9.89,3.83,13.47,13.69,13.28,6.58-.13,7,.24,7.29,6.91.18,4.66.13,9.32.24,14,.08,3.88-1.53,5.95-5.63,5.83-11.31-.33-22.69.1-33.9-1.09-10-1.07-16.44-4-17.79-17.05-1-9.58-1.34-19.25-1.42-28.88q-.31-36.72,0-73.45c0-4.8-1.55-6.71-6.31-6-1.46.22-3,0-4.49.08-3.57.21-5.23-1.4-5.19-5,.06-4.83.08-9.66-.07-14.49-.1-3.33,1.51-4.39,4.59-4.28,3.48.13,7,0,11.44,0,0-6.26-.05-12.16,0-18.06.13-12.35-2.21-12.73,12.8-12.64q9.74.06,19.49,0c3.7,0,5.43,1.48,5.35,5.4C453.42,130.19,453.54,138.33,453.54,147.31Z" transform="translate(-21.84 -110.06)"/><path class="cls-1" d="M922,224.25c0-15.83-.12-31.67.08-47.49.05-4.25-1.06-5.93-5.59-5.87-10.3.14-10.3-.07-10.33-10.3,0-.17,0-.34,0-.5.19-4-1-9,1-11.51,1.62-2,7.1-1.14,10.86-1.14,3.19,0,4-1.49,4-4.3-.05-7,.15-14,0-21,0-3.24,1-5.12,4.46-5.12,9.16,0,18.32,0,27.48-.07,3.9,0,5.28,1.7,5.18,5.49-.17,6.66.17,13.34-.1,20-.16,4,1.4,5.31,5.22,5.05,3.48-.24,7,0,10.5,0,2.62,0,4,1.11,3.9,3.92-.12,5-.07,10,0,15,0,3.38-1.64,4.8-5,4.65-3-.14-6,.23-9-.1-4.56-.49-5.65,1.52-5.63,5.75.15,26.83.06,53.66.11,80.5,0,10.06,2.86,13.21,13,13.61,7.92.31,8.08-.84,8.05,9,0,4.33-.07,8.67,0,13,0,3.09-1.38,4.67-4.52,4.59-11.82-.3-23.78.4-35.42-1.2-11.32-1.55-15.83-4.26-16.8-18-1.27-17.9-.31-35.95-.31-53.94Z" transform="translate(-21.84 -110.06)"/><path class="cls-1" d="M620.85,222.4c0,23-.1,46,.08,69,0,4.48-1.27,6.29-5.94,6.13-8.48-.28-17-.18-25.47,0-4.1.06-6-1.24-6-5.74q.16-69.45,0-138.9c0-4.25,1.69-5.5,5.66-5.42,8.82.17,17.66.21,26.48,0,3.89-.11,5.22,1.09,5.19,5.09-.16,23.31-.08,46.63-.08,70Z" transform="translate(-21.84 -110.06)"/><path class="cls-1" d="M602.31,140.34c-4.66,0-9.32,0-14,0-3.27,0-4.9-1.26-4.81-4.75q.22-9.24,0-18.48c-.07-3.13,1.17-4.73,4.3-4.73,9.82,0,19.64-.11,29.45.2,1.21,0,3.3,2.28,3.36,3.58.33,6.81.1,13.64.16,20.47,0,2.83-1.38,3.77-4,3.73C612,140.29,607.14,140.35,602.31,140.34Z" transform="translate(-21.84 -110.06)"/><path class="cls-2" d="M525,138.21c6.8.17,9.23,2.31,9.35,8.34.2,10,.13,20,.12,29.95,0,28.45.08,56.9-.2,85.35,0,2.94-1.94,6.07-3.67,8.65-.7,1.06-3.27,1.17-4.94,1.06-.43,0-1-2.55-1-3.92q-.12-42.18-.11-84.36,0-20.22.11-40.43C524.72,141.39,524.91,139.94,525,138.21Z" transform="translate(-21.84 -110.06)"/><path class="cls-2" d="M158.07,222.72q0-22.47,0-44.93c0-3.1,0-6.15,4.31-6.54,3.16-.28,5.28.68,5.47,4.12.22,3.81.38,7.63.38,11.45q0,39.94-.12,79.88a11.89,11.89,0,0,1-2,6.84c-.8,1-4.16,1.25-5.44.42-1.43-.93-2.51-3.46-2.53-5.31C158,253.34,158.08,238,158.07,222.72Z" transform="translate(-21.84 -110.06)"/><path class="cls-2" d="M666.58,223.49c0-15-.11-29.94.11-44.91,0-2.37.86-5.6,2.52-6.89,3-2.32,7.14-.18,7.79,3.71a60.93,60.93,0,0,1,.5,9.94q0,40.41,0,80.83c0,7.49-1.49,10-5.69,9.66-6.24-.53-5-5.4-5.06-9.44q0-21.45,0-42.9Z" transform="translate(-21.84 -110.06)"/><path class="cls-2" d="M261.76,223.36q0,21.45,0,42.9c0,1.5.37,3.35-.36,4.4-1.14,1.66-3.06,3.84-4.66,3.85a6.4,6.4,0,0,1-4.85-3.65c-.9-3.1-.68-6.57-.69-9.89q-.06-40.41,0-80.82c0-1.48.21-3,.36-4.46.31-3.27,2.43-5.14,5.34-4.29,1.87.54,4.38,2.88,4.54,4.6.59,6.43.37,12.94.39,19.43,0,9.31,0,18.62,0,27.93Z" transform="translate(-21.84 -110.06)"/><path class="cls-2" d="M761.08,210.43c0-12.28-.16-23.72.21-35.15,0-1.42,2.66-3.38,4.45-4,2.35-.77,4.81.22,4.89,3.33.27,11.09.46,22.19.44,33.29,0,.84-1.83,2.17-3,2.39C766,210.71,763.86,210.43,761.08,210.43Z" transform="translate(-21.84 -110.06)"/><path class="cls-2" d="M852.87,237.1c6,.59,7.65,5.16,8.69,9.21,2,7.71,3.23,15.62,1,23.62-.79,2.82-1.83,5.15-5.2,4.86s-4.39-2.78-4.41-5.66C852.83,258.55,852.87,248,852.87,237.1Z" transform="translate(-21.84 -110.06)"/><path class="cls-2" d="M862.54,206.51c-2.48-2.81-6.41-5.3-7.15-8.51-1.59-7-1.86-14.28-1.95-21.46,0-1.75,2.53-4.63,4.27-4.95,1.47-.27,3.7,2.23,5.17,3.88a6.84,6.84,0,0,1,1.32,4.14c.12,8.59.06,17.2.06,25.8Z" transform="translate(-21.84 -110.06)"/></svg>